<svg xmlns="http://www.w3.org/2000/svg" width="48" height="48" id="lua">
  <path d="M28 32.72a1.39 1.39 0 0 0 1.54 1.42c1.91 0 2.17-1.28 2.17-2.72v-.26h-1.26c-1.58 0-2.45.44-2.45 1.56Z"></path>
  <path d="M21.39 9a17.28 17.28 0 1 0 17.27 17.29A17.27 17.27 0 0 0 21.39 9ZM17 35h-6.91V24.15h1.44v9.64h5.68Zm6.48 0v-1.19A2.36 2.36 0 0 1 21 35.22c-1.34 0-2.62-.67-2.62-2.91V27.1h1.36V32c0 1 .32 2 1.64 2s2-.8 2-2.78V27.1h1.37v7.93Zm8.38 0a4 4 0 0 1-.13-1 2.49 2.49 0 0 1-2.45 1.23 2.4 2.4 0 0 1-2.67-2.43c0-1.77 1.39-2.58 3.75-2.58h1.35v-.67c0-.7-.22-1.55-1.71-1.55-1.32 0-1.55.65-1.69 1.27H27c.11-1.09.79-2.35 3.07-2.35 1.93 0 3 .8 3 2.6v3.78a11.84 11.84 0 0 0 .11 1.7Zm-3.1-10.66a5.14 5.14 0 1 1 5.14-5.14 5.15 5.15 0 0 1-5.14 5.14Z"></path>
  <circle cx="39.08" cy="9.24" r="4.82" transform="rotate(-45 39.079 9.243)"></circle>
</svg>